<svg id="Layer_1" data-name="Layer 1" xmlns="http://www.w3.org/2000/svg" viewBox="0 0 215.59 214.31"><defs><style>.cls-1{fill:none;stroke:#231f20;stroke-miterlimit:10;stroke-width:2px;}</style></defs><circle class="cls-1" cx="197.74" cy="106.37" r="20.61" transform="translate(-40.85 275.41) rotate(-76.84)"/><path class="cls-1" d="M252.15,13.58c-35.09,15.78-64.46,41.54-68.82,78.07" transform="translate(-89.99 0.72)"/><path class="cls-1" d="M187.59,88.45c18.71-27.8,65.07-49.07,89.9-54.27" transform="translate(-89.99 0.72)"/><path class="cls-1" d="M190.26,87.18C214.9,73.13,258.88,60,295.43,61.32" transform="translate(-89.99 0.72)"/><path class="cls-1" d="M180.19,95.62c-3-12-.27-63.08,33.66-95.62" transform="translate(-89.99 0.72)"/><path class="cls-1" d="M177.92,100.74c-7.58-13.26-17.93-53.88-9.08-98" transform="translate(-89.99 0.72)"/><path class="cls-1" d="M197.74,85.76c37.09-6.08,85.2,5,107.43,15" transform="translate(-89.99 0.72)"/><path class="cls-1" d="M205.25,87.18a166.86,166.86,0,0,1,94.05,54.73" transform="translate(-89.99 0.72)"/><path class="cls-1" d="M212.15,91.65c8.35,4.76,47.75,46.95,58.42,93.89" transform="translate(-89.99 0.72)"/><path class="cls-1" d="M217.13,99.45c5.31,14.1,18.56,73.05,8.77,110.77" transform="translate(-89.99 0.72)"/><path class="cls-1" d="M217.74,111.29c-.61,12.21-12.37,72.53-34.41,101.69" transform="translate(-89.99 0.72)"/><path class="cls-1" d="M213.85,119.21c-14.84,24.4-54.14,62.93-75.18,77.07" transform="translate(-89.99 0.72)"/><path class="cls-1" d="M177.14,106.37C163,94.09,138.05,60.07,131.88,21.32" transform="translate(-89.99 0.72)"/><path class="cls-1" d="M197.74,127c-20.6,13.93-71.46,27.26-96.06,27.85" transform="translate(-89.99 0.72)"/><path class="cls-1" d="M180.65,117.89c-24.42-6.62-63.6-44.17-74.12-68.57" transform="translate(-89.99 0.72)"/><path class="cls-1" d="M188.75,124.9c-40.22,1.76-77.48-13.86-98.22-27.36" transform="translate(-89.99 0.72)"/></svg>